<svg width="88" height="85" viewBox="0 0 88 85" fill="none" xmlns="http://www.w3.org/2000/svg">
<path d="M43.8953 84.0577L43.8328 84.8606L43.7775 84.419L43.7223 83.9774L43.6393 80.1636L43.5564 76.3497L43.5069 75.6471L43.4573 74.9446H43.5452H43.6331L43.7262 75.1183L43.8192 75.292L43.9644 75.0994L44.1096 74.9068L44.1378 74.9458L44.1661 74.9847L44.0621 79.1198L43.958 83.2548L43.8953 84.0577ZM43.8875 72.8123L43.8366 72.8438L43.7027 72.5092L43.5688 72.1745L43.5208 69.9263L43.4729 67.6781L43.3888 66.3533L43.3048 65.0285L43.1548 64.1453L43.0048 63.2621L42.8116 62.5978L42.6183 61.9335L42.5672 61.8824L42.5161 61.8313L41.7327 62.0053L40.9493 62.1792L40.1063 62.3022L39.2632 62.4253L37.9468 62.4963L36.6304 62.5673L35.3534 62.4911L34.0764 62.4149L33.1369 62.2549L32.1975 62.0949L31.2742 61.8492L30.3508 61.6035L29.588 61.3202L28.8252 61.0368L27.8639 60.5607L26.9025 60.0846L25.9864 59.4744L25.0702 58.8643L24.258 58.0662L23.4457 57.268L23.7482 57.3095L24.0507 57.351L24.5913 57.8292L25.1318 58.3074L25.923 58.8419L26.7141 59.3765L27.7222 59.863L28.7302 60.3494L29.8215 60.7055L30.9128 61.0615L32.0771 61.2949L33.2413 61.5283L34.2779 61.6237L35.3144 61.7192L36.8472 61.6712L38.38 61.6232L39.2073 61.5006L40.0346 61.378L40.9737 61.1675L41.9128 60.957L42.7559 60.7037L43.599 60.4504L43.5671 57.5085L43.5353 54.5666L43.7839 54.4381L44.0325 54.3096H44.0766H44.1207V57.2768V60.244L44.4218 60.137L44.7229 60.03L45.4817 59.6874L46.2406 59.3449L47.1277 58.8686L48.0148 58.3923L49.0185 57.7224L50.0221 57.0524L50.6851 56.518L51.348 55.9835L52.1096 55.2269L52.8713 54.4702L53.4942 53.6873L54.1172 52.9045L54.5282 52.2621L54.9391 51.6198L55.2994 50.8972L55.6597 50.1745L55.8825 49.6125L56.1054 49.0504L56.3382 48.1284L56.5711 47.2063L56.6335 46.2793L56.6961 45.3524L56.6321 44.5919L56.5681 43.8314L56.3959 43.1088L56.2237 42.3862L56.154 42.3099L56.0843 42.2336V42.0994V41.9652L55.6699 41.2122L55.2555 40.4592L54.8392 39.8971L54.4229 39.3351L53.7883 38.7312L53.1536 38.1273L52.4711 37.676L51.7887 37.2248L51.2266 36.9485L50.6646 36.6722L50.223 36.4996L49.7814 36.327L49.0306 36.1285L48.2799 35.9299L47.499 35.8392L46.7181 35.7484L45.7004 35.7753L44.6826 35.8022L44.6827 35.7438L44.6828 35.6855L44.8635 35.571L45.0441 35.4566L45.7215 35.2882L46.3989 35.1199L47.5052 35.0272L48.6114 34.9345L49.6443 35.0288L50.6771 35.1232L51.4738 35.3164L52.2704 35.5095L52.8726 35.7263L53.4748 35.943L54.1962 36.3044L54.9176 36.6658L55.5127 37.0674L56.1077 37.4689L56.7513 38.0808L57.3948 38.6927L57.8714 39.3324L58.348 39.9721L58.6078 40.4967L58.8676 41.0212L59.051 41.4829L59.2343 41.9445H62.8071H66.3799L66.3232 41.5667L66.2665 41.1888L66.0686 40.5057L65.8707 39.8227L65.6243 39.2577L65.378 38.6927L65.0694 38.161L64.7607 37.6293L64.2887 36.9968L63.8167 36.3642L63.0216 35.6001L62.2266 34.8359L61.6884 34.4358L61.1502 34.0358L60.3168 33.5353L59.4833 33.0348L58.6841 32.6805L57.8847 32.3261L57.1651 32.0712L56.4456 31.8163L55.5496 31.5844L54.6536 31.3526L53.5121 31.1878L52.3705 31.023L51.0759 30.9731L49.7813 30.9231L48.6572 31.0166L47.5332 31.11L46.7704 31.2286L46.0076 31.3472L45.0642 31.5608L44.1207 31.7744L44.1192 32.4635L44.1176 33.1526L43.9686 32.9585L43.8195 32.7645L43.7642 32.9385L43.7089 33.1124H43.634H43.5592V32.5515V31.9906L43.0975 32.159L42.6358 32.3275L41.7526 32.7532L40.8694 33.1789L40.1318 33.6679L39.3941 34.1568L38.7061 34.8081L38.018 35.4594L37.6135 35.9921L37.209 36.5248L36.8562 37.2475L36.5035 37.9701L36.3748 38.4518L36.2462 38.9336L36.2013 39.8569L36.1564 40.7803L36.2401 41.1394L36.3239 41.4986L36.3083 41.5115L36.2927 41.5244L36.0439 41.5776L35.7951 41.6308L35.6256 41.1654L35.4562 40.7001L35.325 40.138L35.1937 39.576L35.1903 38.7329L35.1869 37.8898L35.3593 37.1771L35.5317 36.4643L35.8392 35.8081L36.1468 35.1518L36.4269 34.7142L36.707 34.2767L37.1948 33.7117L37.6825 33.1467L38.2722 32.6591L38.862 32.1715L39.5043 31.7513L40.1467 31.3311L40.9678 30.9292L41.7889 30.5272L42.6539 30.2228L43.5189 29.9184L43.54 27.3345L43.5612 24.7506L43.3794 24.8028L43.1976 24.8551L43.0571 24.8943L42.9165 24.9335V24.8909V24.8484L43.0788 24.4147L43.2411 23.981L43.3897 23.8465L43.5383 23.712L43.5074 18.3356L43.4765 12.9591H43.5386H43.6007L43.7096 13.1335L43.8185 13.3079L43.9686 13.1135L44.1188 12.919L44.0999 18.2425L44.0809 23.5659L44.2415 23.5228L44.4021 23.4796L44.5224 23.4771L44.6429 23.4746L44.7518 23.4056L44.8607 23.3366L44.7395 23.0656L44.6183 22.7946L44.5667 22.5136L44.5151 22.2326L44.4752 21.5903L44.4353 20.9479L44.4005 20.7271L44.3657 20.5063H44.4366H44.5072L44.5639 20.9278L44.6206 21.3494L44.8143 22.1121L45.008 22.8749L45.1 23.1048L45.1919 23.3346L45.5598 23.2832L45.9277 23.2318L46.9715 23.1063L48.0153 22.9808L49.6612 22.9783L51.3072 22.9759L52.1503 23.0697L52.9934 23.1636L53.9167 23.3193L54.8401 23.475L55.8036 23.7129L56.7671 23.9509L57.4496 24.186L58.132 24.4212L58.9751 24.7576L59.8182 25.094L60.5809 25.4983L61.3437 25.9027L62.1467 26.4264L62.9496 26.9501L63.4715 27.3583L63.9934 27.7665L64.6647 28.4119L65.336 29.0573L65.7931 29.6193L66.2503 30.1814L66.432 30.4423L66.6138 30.7033H66.3714H66.1289L65.8683 30.3247L65.6077 29.9459L64.8809 29.2138L64.154 28.4816L63.3391 27.8765L62.5241 27.2714L61.8335 26.8542L61.1429 26.4371L60.0791 25.9299L59.0154 25.4227L58.1861 25.1318L57.3569 24.841L56.4598 24.6022L55.5628 24.3634L54.9205 24.2445L54.2781 24.1255L53.2745 23.9867L52.2708 23.8479L50.384 23.8437L48.4971 23.8395L47.654 23.9452L46.811 24.0509L45.7672 24.2446L44.7234 24.4384L44.4323 24.5209L44.1412 24.6034L44.1038 25.3049L44.0664 26.0065L44.1049 27.9022L44.1434 29.798L44.489 29.694L44.8347 29.5899L45.8229 29.4247L46.8111 29.2595L47.9753 29.1719L49.1396 29.0842L50.1432 29.1343L51.1469 29.1843L51.9096 29.2652L52.6724 29.346L53.5958 29.5069L54.5191 29.6677L55.293 29.8636L56.0668 30.0595L56.9791 30.3719L57.8914 30.6844L58.333 30.8612L58.7746 31.038L59.724 31.5131L60.6734 31.9883H60.9016H61.1299L61.158 31.9041L61.1861 31.8199L62.911 31.6247L64.636 31.4295L66.282 31.3103L67.928 31.1911L69.8149 31.1397L71.7017 31.0884L73.428 31.1808L75.1543 31.2732L76.3891 31.4309L77.6239 31.5887L78.276 31.7519L78.928 31.9151L79.4499 32.082L79.9718 32.249L80.5105 32.5283L81.0491 32.8076L81.4081 33.1914L81.7671 33.5751L81.8607 33.9228L81.9544 34.2704L81.8705 34.6876L81.7867 35.1048L81.6741 35.3732L81.5615 35.6415L81.0666 36.2974L80.5718 36.9533L79.9907 37.4913L79.4097 38.0293L78.7494 38.539L78.0891 39.0487L77.1034 39.7237L76.1177 40.3987L75.1944 40.9606L74.271 41.5225L73.2272 42.1071L72.1834 42.6917L69.8549 43.88L67.5265 45.0684L65.9608 45.8029L64.3951 46.5373L62.6287 47.3232L60.8622 48.1091L60.0995 48.4361L59.3367 48.763L59.3142 48.6984L59.2916 48.6337L59.4443 48.28L59.597 47.9262L61.2334 47.2088L62.8698 46.4914L64.315 45.8166L65.7603 45.1419L67.8479 44.1091L69.9355 43.0762L71.5012 42.2045L73.0669 41.3328L74.2079 40.6202L75.3489 39.9076L76.3757 39.1471L77.4026 38.3867L78.2922 37.4958L79.1818 36.605L79.4825 35.9955L79.7831 35.3859L79.8254 35.0706L79.8676 34.7552L79.7741 34.4083L79.6806 34.0613L79.3624 33.7161L79.0443 33.3709L78.5044 33.091L77.9645 32.8111L77.4426 32.6444L76.9207 32.4777L76.4389 32.3575L75.9572 32.2373L74.8331 32.0786L73.709 31.9199L72.2006 31.8221L70.6923 31.7243L68.1459 31.7722L65.5995 31.82L63.8331 31.9463L62.0666 32.0726L61.5079 32.1308L60.9491 32.189L61.5075 32.5503L62.0659 32.9116L62.8332 33.5268L63.6005 34.1419L64.2788 34.8556L64.9572 35.5694L65.479 36.3088L66.0009 37.0482L66.3846 37.7901L66.7683 38.5321L67.0456 39.3892L67.3229 40.2464L67.4373 40.9148L67.5519 41.5832L67.5704 42.1854L67.5889 42.7875L67.578 43.2423L67.5671 43.6971L67.0523 43.985L66.5374 44.2729H66.4827H66.4281L66.4826 43.8762L66.5371 43.4794L66.4807 42.9528L66.4243 42.4262H62.8921H59.3599L59.4076 42.616L59.4553 42.8057L59.5353 43.3587L59.6152 43.9116L59.6168 44.865L59.6183 45.8185L59.4078 46.8322L59.1972 47.8459L59.1792 47.9664L59.1612 48.0868L59.0711 48.2876L58.981 48.4883L58.5559 49.4919L58.1307 50.4956L57.6157 51.3592L57.1007 52.2229L56.456 53.0855L55.8114 53.9481L54.6838 55.0781L53.5563 56.208L52.8738 56.7336L52.1913 57.2592L51.4894 57.7489L50.7875 58.2386L49.9723 58.7283L49.1571 59.2179L48.0647 59.7621L46.9724 60.3063L46.2096 60.612L45.4468 60.9178L45.3167 61.0622L45.1867 61.2065L44.9313 61.9934L44.6758 62.7803L44.5247 63.6635L44.3736 64.5467L44.29 65.7912L44.2065 67.0357L44.1597 69.5649L44.1132 72.0941L44.0262 72.4374L43.9392 72.7808L43.8875 72.8123ZM43.81 65.9117L43.8602 64.7876L43.9541 63.9446L44.0481 63.1015L44.1677 62.3966L44.2874 61.6917L44.3633 61.4922L44.4393 61.2927L44.22 61.3467L44.0008 61.4007L43.5993 61.5362L43.1978 61.6717L43.2224 61.945L43.2469 62.2183L43.3566 62.8674L43.4662 63.5166L43.6131 65.2762L43.76 67.0358L43.81 65.9117ZM46.2624 69.1239L45.7139 69.1777L45.7405 68.991L45.767 68.8043L46.7707 68.7003L47.7743 68.5964L48.9386 68.3622L50.1028 68.128L51.0868 67.8446L52.0707 67.5612L53.2145 67.1082L54.3583 66.6553L55.2223 66.2222L56.0862 65.7891L56.9485 65.2763L57.8109 64.7634L58.5736 64.2229L59.3364 63.6824L60.1794 62.9939L61.0225 62.3054L61.9501 61.3723L62.8776 60.4394L63.5607 59.6025L64.2438 58.7657L64.731 58.0833L65.2183 57.4008L65.6551 56.6782L66.092 55.9555L66.4627 55.273L66.8334 54.5906L67.241 53.6856L67.6487 52.7807L67.9688 51.9284L68.2889 51.0761L68.5693 50.0632L68.8497 49.0504L69.0433 48.1672L69.2369 47.284L69.3768 46.2201L69.5168 45.1562H69.7382H69.9597L69.921 45.4975L69.8824 45.8387L69.7221 46.8424L69.5618 47.846L69.3269 48.8374L69.0921 49.8288L68.8816 50.5236L68.6711 51.2183L68.2488 52.3022L67.8266 53.3862L67.5098 54.0694L67.193 54.7526L66.7299 55.5949L66.267 56.4373L65.5189 57.5614L64.7709 58.6855L64.0905 59.5306L63.4101 60.3758L62.6281 61.1983L61.846 62.0208L60.9926 62.7692L60.1392 63.5176L59.3186 64.1264L58.4981 64.7353L57.4318 65.3985L56.3654 66.0617L55.161 66.6407L53.9567 67.2198L52.8727 67.6213L51.7888 68.0228L50.745 68.3073L49.7012 68.5919L49.099 68.7123L48.4968 68.8326L47.6537 68.9514L46.8107 69.0702L46.2624 69.1239ZM41.7781 69.074L41.5116 69.0646L41.3912 69.0389L41.2707 69.0132L40.4277 68.8799L39.5846 68.7467L38.4757 68.4686L37.3668 68.1905L36.4283 67.8671L35.4897 67.5437L34.7269 67.2197L33.9642 66.8957L33.2014 66.5128L32.4386 66.1298L31.7963 65.7493L31.1533 65.3689L30.4999 64.9386L29.8464 64.5083L29.1293 63.9541L28.4122 63.3999L27.7152 62.7401L27.0183 62.0804V61.9991V61.9178L27.4398 62.2764L27.8613 62.6349L28.9453 63.4346L30.0292 64.2342L30.7518 64.7078L31.4745 65.1814L32.6387 65.8075L33.8029 66.4336L34.646 66.8052L35.4891 67.1768L36.7989 67.6052L38.1088 68.0336L39.2178 68.2765L40.3268 68.5194L41.1597 68.6238L41.9927 68.7282L42.0184 68.9057L42.044 69.0833L41.7781 69.074ZM46.1295 65.8716H45.9026L45.944 65.713L45.9855 65.5544L46.2376 65.515L46.4897 65.4756L47.3327 65.3461L48.1758 65.2166L49.1683 64.9769L50.1609 64.7371L51.0552 64.4321L51.9495 64.1271L52.4714 63.907L52.9933 63.6869L53.997 63.1774L55.0006 62.668L55.9641 62.0361L56.9276 61.4041L57.7306 60.755L58.5335 60.1059L59.0668 59.5964L59.6 59.0869L60.1283 58.501L60.6566 57.9151L61.2892 57.0959L61.9218 56.2767L62.6236 55.1526L63.3255 54.0285L63.7354 53.4865L64.1453 52.9446H64.211H64.2766L64.0243 53.4464L63.772 53.9482L63.3263 54.711L62.8806 55.4738L62.321 56.2767L61.7615 57.0796L61.4862 57.4409L61.2109 57.8022L60.4147 58.6951L59.6186 59.588L59.0359 60.1051L58.4532 60.6221L57.7724 61.1676L57.0916 61.7131L56.3189 62.2226L55.5462 62.7321L54.5909 63.2541L53.6356 63.7761L52.6721 64.1892L51.7086 64.6023L50.986 64.8379L50.2634 65.0734L49.4684 65.2763L48.6734 65.4791L47.5149 65.6753L46.3564 65.8716H46.1295ZM41.5718 65.7863L41.351 65.7813L40.2568 65.556L39.1625 65.3306L38.2093 65.0304L37.2561 64.7302L36.4532 64.4122L35.6503 64.0941L34.7269 63.6087L33.8036 63.1234L33.7013 63.0408L33.599 62.9582L33.634 62.9232L33.669 62.8882L34.218 63.0882L34.7671 63.2882L35.6904 63.7025L36.6138 64.1168L37.5372 64.436L38.4605 64.7552L39.3839 64.9874L40.3072 65.2195L40.8693 65.3088L41.4313 65.3982L41.612 65.4357L41.7926 65.4732V65.6323V65.7913L41.5718 65.7863ZM49.7069 61.0961L49.3802 61.1355L49.6211 61.0181L49.862 60.9007L49.9514 60.8972L50.0409 60.8936L50.8748 60.5786L51.7086 60.2637L52.5116 59.9287L53.3145 59.5937L54.4787 59.0103L55.643 58.427L56.4057 57.9641L57.1685 57.5012L57.9714 56.9535L58.7743 56.4057L59.4568 55.8594L60.1393 55.3132L61.0932 54.3898L62.047 53.4665L62.6875 52.7037L63.328 51.9409L63.9954 50.9351L64.6628 49.9293L65.0962 49.0463L65.5295 48.1634L65.8359 47.232L66.1423 46.3006L66.6684 46.0511L67.1945 45.8015L67.2298 45.8368L67.2651 45.8721L66.9548 46.7788L66.6445 47.6855L66.1124 48.7694L65.5803 49.8533L65.1 50.576L64.6198 51.2986L64.0554 52.0252L63.4911 52.7518L62.6191 53.6618L61.7472 54.5718L61.0636 55.1479L60.3801 55.724L59.7161 56.226L59.052 56.728L58.3511 57.192L57.6501 57.656L57.0479 58.0205L56.4458 58.3851L55.1429 59.0366L53.8401 59.6881L52.945 60.0502L52.0498 60.4122L51.0417 60.7345L50.0335 61.0568L49.7069 61.0961ZM20.1539 56.7067L17.5043 56.6954L16.5408 56.6282L15.5773 56.561L14.4532 56.434L13.3291 56.307L12.3656 56.1051L11.4021 55.9033L10.7999 55.7027L10.1977 55.5022L9.71042 55.27L9.2231 55.0377L8.854 54.7128L8.4849 54.3879L8.30707 54.0206L8.12924 53.6532L8.17324 53.1679L8.21726 52.6825L8.48486 52.1545L8.75247 51.6266L9.42465 50.9199L10.0968 50.2132L10.7896 49.6631L11.4824 49.1131L12.4467 48.4659L13.411 47.8188L14.4139 47.2435L15.4167 46.6682L17.1831 45.8054L18.9496 44.9426L19.5723 44.6734L20.195 44.4041L20.2976 44.5445L20.4002 44.6848L20.7588 44.4799L21.1174 44.2749L21.2671 44.274L21.4167 44.2731L21.3775 44.0523L21.3384 43.8315L21.1997 43.0286L21.0611 42.2256L21.1047 40.9811L21.1483 39.7366L21.3092 38.9845L21.4701 38.2325L21.7229 37.459L21.9756 36.6855L22.4836 35.6236L22.9916 34.5618L23.4498 33.8572L23.908 33.1526L24.4355 32.4702L24.9631 31.7877L26.0111 30.7432L27.0591 29.6988L27.9124 29.0048L28.7657 28.3108L29.7591 27.632L30.7525 26.9532L31.4649 26.5358L32.1773 26.1184L33.1912 25.6107L34.205 25.1031L34.9731 24.7766L35.7411 24.4501L36.3976 24.2105L37.0541 23.9709L38.1588 23.6492L39.2634 23.3274L39.5645 23.2731L39.8656 23.2187V23.2611V23.3036L38.8419 23.6408L37.8182 23.978L36.3798 24.5451L34.9414 25.1123L33.7703 25.708L32.5992 26.3037L31.9167 26.7115L31.2342 27.1194L30.6321 27.5191L30.0299 27.9189L29.3474 28.4439L28.6649 28.9689L27.862 29.6723L27.0591 30.3757L26.4506 31.0415L25.8421 31.7074L25.317 32.3899L24.7918 33.0723L24.4141 33.6575L24.0364 34.2426L23.5268 35.3034L23.0172 36.3643L22.8092 36.9983L22.6011 37.6323L22.4339 38.4435L22.2666 39.2548L22.2233 40.2183L22.18 41.1818L22.2704 41.8643L22.3609 42.5468L22.4994 43.141L22.6379 43.7352L22.7877 43.7744L22.9376 43.8136L22.8411 43.8732L22.7447 43.9328L22.8444 44.2435L22.944 44.5541L23.3481 45.347L23.7522 46.1399L24.234 46.7897L24.7158 47.4395L25.3254 48.0462L25.935 48.6529L26.6174 49.1604L27.2999 49.668L28.0376 50.1036L28.7752 50.5393L29.6759 50.9406L30.5766 51.3419L31.4675 51.621L32.3583 51.9L33.33 52.0965L34.3018 52.293L35.1768 52.3975L36.0518 52.5021L37.9386 52.4947L39.8255 52.4872L40.8291 52.3535L41.8328 52.2198L42.7468 52.0116L43.6608 51.8033L43.6094 51.2499L43.558 50.6965H43.5967H43.6353L43.7676 50.9525L43.9 51.2085L44.004 50.9726L44.1081 50.7367L44.1143 51.2392L44.1205 51.7417L44.261 51.6621L44.4016 51.5825L45.1643 51.2892L45.9271 50.996L46.4867 50.7159L47.0463 50.4359L47.5706 50.1098L48.095 49.7836L48.7373 49.2872L49.3797 48.7907L49.75 48.394L50.1202 47.9972L50.4962 47.4865L50.8722 46.9758L51.1446 46.4073L51.4171 45.8388L51.5871 45.2366L51.7572 44.6345L51.7935 43.7528L51.8299 42.8711L52.0036 42.8069L52.1774 42.7426L52.2426 42.8454L52.308 42.9483L52.4267 43.3515L52.5452 43.7548L52.6388 44.1916L52.7325 44.6285L52.6871 45.5548L52.6419 46.4812L52.5113 46.9629L52.3807 47.4446L52.029 48.1742L51.6773 48.9037L51.2025 49.5391L50.7277 50.1746L50.134 50.7441L49.5403 51.3137L48.4162 51.6822L47.2922 52.0507L46.1279 52.3737L44.9637 52.6967L44.5755 52.7918L44.1872 52.8869L44.1441 52.9995L44.1009 53.1122L44.1391 53.1503L44.1773 53.1885L46.0158 52.655L47.8544 52.1215L48.4967 51.9352L49.1391 51.7489L49.4376 51.6241L49.7361 51.4994H49.7836H49.8311L49.7765 51.5879L49.7218 51.6764L49.4707 51.7817L49.2195 51.887L48.1757 52.4575L47.1319 53.0281L46.3906 53.2666L45.6493 53.5052L43.7008 53.9845L41.7524 54.4638L40.0261 54.7916L38.2998 55.1194L37.0553 55.3208L35.8107 55.5222L34.3655 55.713L32.9202 55.9039L31.4348 56.0687L29.9494 56.2335L28.5443 56.3564L27.1392 56.4793L24.9713 56.5987L22.8034 56.7181L20.1539 56.7067ZM22.1612 55.9519L24.4897 55.9195L26.0153 55.8345L27.5408 55.7495L29.6284 55.5474L31.716 55.3454L33.0408 55.1864L34.3656 55.0274L35.2087 54.9057L36.0518 54.7839L37.5345 54.5438L39.0172 54.3037L40.3848 54.0289L41.7525 53.7542L42.8107 53.5019L43.869 53.2496L43.8258 53.1372L43.7827 53.0249H43.6642H43.5457L42.9301 53.1806L42.3145 53.3364L40.6686 53.6556L39.0226 53.9748L37.4937 54.1893L35.9648 54.4039L35.065 54.2788L34.1651 54.1537L33.2216 53.9449L32.278 53.7361L31.1941 53.3779L30.1102 53.0197L28.9058 52.4259L27.7014 51.8321L26.9748 51.3465L26.2482 50.8608L25.4753 50.2207L24.7024 49.5806L24.0484 48.8337L23.3944 48.0869L22.9692 47.4446L22.544 46.8022L22.2216 46.1599L21.8992 45.5176L21.6804 44.9005L21.4617 44.2835L21.2896 44.3507L21.1175 44.4179L19.6722 45.1389L18.2269 45.8599L16.9704 46.5446L15.7139 47.2292L14.8025 47.8091L13.8912 48.3889L13.1454 48.9484L12.3996 49.5079L11.774 50.1335L11.1483 50.7592L10.867 51.1895L10.5857 51.6197L10.4488 51.9705L10.3119 52.3212L10.3069 52.7405L10.3019 53.1599L10.4649 53.4792L10.6278 53.7986L10.9519 54.0914L11.276 54.3842L11.6814 54.5896L12.0867 54.795L12.7883 55.0275L13.4898 55.2599L14.2927 55.4228L15.0956 55.5857L16.2197 55.7125L17.3438 55.8393L18.5883 55.9118L19.8329 55.9843L22.1612 55.9519ZM22.1096 55.1112L21.9204 55.11L21.8293 55.051L21.7382 54.992L21.1548 54.0285L20.5714 53.065L20.2137 52.3022L19.8559 51.5395L19.4248 50.4488L18.9937 49.3582L18.7105 48.3743L18.4273 47.3904L18.3784 47.0845L18.3295 46.7786L18.505 46.7228L18.6806 46.6671L18.705 46.6945L18.7293 46.7219L19.0302 47.846L19.3311 48.9701L19.6962 49.9697L20.0614 50.9692L20.7221 52.2981L21.3828 53.627L21.8005 54.2647L22.2182 54.9024L22.2585 55.0074L22.2988 55.1124L22.1096 55.1112ZM43.9614 50.157L43.9071 50.2199L43.7664 48.7118L43.6257 47.2037L43.5067 46.3606L43.3878 45.5176L43.2601 44.9957L43.1325 44.4738L42.9442 44.0422L42.756 43.6107V43.5031V43.3954L43.0052 43.1116L43.2544 42.8278L42.7041 42.8323L42.1538 42.8368L42.4348 42.9326L42.7158 43.0285L42.6756 43.1087L42.6355 43.189L42.3947 43.1813L42.1538 43.1735L41.5448 43.0073L40.9359 42.8411L39.8988 42.7162L38.8618 42.5914L37.3363 42.4699L35.8107 42.3485L34.7439 42.2946L33.677 42.2406L33.6452 42.1891L33.6133 42.1376L35.796 41.9973L37.9786 41.8569L38.902 41.774L39.8253 41.6911L40.7048 41.5391L41.5842 41.3871L42.0144 41.2518L42.4446 41.1165L42.7235 41.2495L43.0023 41.3825H43.0421H43.0818L42.9062 41.1449L42.7305 40.9073L42.9769 40.2818L43.2234 39.6562L43.3878 38.6525L43.5522 37.6489L43.6772 36.1635L43.8022 34.6781L43.8483 34.1675L43.8944 33.657L43.9556 33.7259L44.0168 33.7949L44.1153 34.9591L44.2137 36.1233L44.3679 37.3517L44.5221 38.5801L44.6489 39.1984L44.7756 39.8168L44.9987 40.3503L45.2218 40.8838L44.8919 41.2715L44.562 41.6592L44.8831 41.4653L45.2043 41.2713L45.3331 41.1945L45.4618 41.1177L46.0958 41.2867L46.7298 41.4558L47.4926 41.5743L48.2554 41.6927L49.1386 41.7746L50.0218 41.8565L51.4269 41.9477L52.832 42.039L53.5948 42.0976L54.3576 42.1562L54.1569 42.2039L53.9561 42.2515L52.3904 42.3429L50.8247 42.4344L49.5802 42.5523L48.3357 42.6702L47.7736 42.755L47.2116 42.8398L46.3375 43.0441L45.4633 43.2484L45.1864 43.1164L44.9095 42.9843L45.0837 43.229L45.2579 43.4736L45.0155 44.056L44.7731 44.6383L44.6124 45.4392L44.4517 46.2401L44.2333 48.1671L44.015 50.0942L43.9614 50.157ZM40.1313 48.8393L39.5043 48.8288L38.9022 48.7592L38.3002 48.6895L37.618 48.5186L36.9359 48.3477L36.2448 48.084L35.5538 47.8203L35.04 47.5619L34.5262 47.3036L34.0043 46.9671L33.4824 46.6307L32.7598 46.0235L32.0371 45.4163L31.435 44.6817L30.8328 43.9472L30.4162 43.262L29.9997 42.5768L29.9704 42.4889L29.9411 42.4009L28.5001 42.3255L27.059 42.25L26.9928 42.1876L26.9265 42.1252L27.5146 42.0765L28.1028 42.0278L28.9176 41.9764L29.7325 41.9251L29.6081 41.6337L29.4837 41.3424L29.2454 40.4993L29.0071 39.6563L28.9674 38.3202L28.9277 36.9842L29.0608 36.3129L29.1939 35.6417L29.3932 34.9993L29.5924 34.357L30.152 33.2329L30.7115 32.1088L31.3645 31.2308L32.0174 30.3528L32.7901 29.5553L33.5627 28.7578L34.3656 28.11L35.1685 27.4622L36.0919 26.8582L37.0152 26.2542L38.2196 25.6418L39.424 25.0295L40.267 24.7049L41.1101 24.3803L41.5846 24.2313L42.0592 24.0823L42.3241 23.5189L42.5891 22.9555L42.7882 22.2608L42.9872 21.5661L43.0427 21.0765L43.0981 20.5869H43.1615H43.2248L43.1848 21.5303L43.1447 22.4738L42.995 23.3168L42.8453 24.1599L42.6942 24.597L42.5431 25.0342L41.5456 25.4447L40.5481 25.8553L39.7451 26.2578L38.9422 26.6603L38.1826 27.1316L37.4231 27.6029L36.617 28.209L35.8108 28.815L34.9199 29.6991L34.029 30.5833L33.5692 31.1683L33.1095 31.7534L32.704 32.4073L32.2984 33.0611L32.0585 33.5886L31.8186 34.1161L31.6334 34.638L31.4482 35.1599L31.2812 35.815L31.1141 36.4701L31.0321 37.2603L30.9501 38.0504L30.9967 38.6526L31.0433 39.2548L31.2049 40.0481L31.3665 40.8415L31.6085 41.5335L31.8505 42.2256L32.2102 42.8903L32.5699 43.555L33.0391 44.175L33.5083 44.795L34.0294 45.3291L34.5506 45.8632L35.1405 46.3028L35.7305 46.7423L36.3729 47.1056L37.0152 47.4688L37.7994 47.7596L38.5837 48.0505L39.2447 48.2058L39.9057 48.3611L40.5861 48.4448L41.2665 48.5285H41.8667H42.467L42.3907 48.5973L42.3145 48.6661L41.5363 48.7579L40.7581 48.8497L40.1313 48.8393ZM18.026 44.8351H17.964L17.8944 44.2931L17.8248 43.7511L17.1022 43.6902L16.3796 43.6292L15.5365 43.5331L14.6934 43.4369L14.3669 43.4271L14.0403 43.4174L13.944 43.3579L13.8477 43.2984L13.8831 43.2412L13.9184 43.1841L12.967 42.7048L12.0156 42.2255L12.0097 42.175L12.0038 42.1246L12.2481 42.0233L12.4924 41.9221L13.3366 41.3311L14.1808 40.7401H16.7616H19.3425L19.2662 40.8077L19.1899 40.8753L18.7483 40.9642L18.3067 41.0531L16.3397 41.1082L14.3726 41.1632L13.6839 41.6542L12.9952 42.1452L13.7941 42.6872L14.593 43.2292L15.6068 43.2389L16.6205 43.2487L17.4636 43.2991L18.3067 43.3495L18.3584 43.9517L18.4101 44.5539L18.2492 44.6944L18.0882 44.8349L18.026 44.8351ZM72.0563 43.8101L70.3358 43.8554L70.5767 43.7915L70.8176 43.7277L71.3395 43.5933L71.8613 43.4588L72.6954 43.3808L73.5294 43.3028L74.0001 42.933L74.4708 42.5632V42.5483V42.5334L74.0114 42.5957L73.5519 42.6581L73.5256 42.6318L73.4994 42.6055L74.2682 42.1947L75.037 41.7839H75.0896H75.1423L75.5293 41.9588L75.9163 42.1337V42.1809V42.2281L75.461 42.5004L75.0058 42.7727L74.3914 43.2687L73.777 43.7648L72.0563 43.8101ZM11.1923 43.0638L11.0803 43.059L10.2815 42.7427L9.48268 42.4263L8.63551 42.4272L7.78833 42.4281L4.33576 42.3406L0.883212 42.2531L0.441606 42.1934L0 42.1337L1.00365 42.0796L2.0073 42.0256L6.01593 41.9388L10.0246 41.8521L10.6328 41.6301L11.241 41.4082L11.4961 41.4956L11.7513 41.5831L11.8025 41.6353L11.8538 41.6875L11.5522 41.787L11.2506 41.8866L10.8886 42.0467L10.5265 42.2069L10.9804 42.4363L11.4342 42.6658L11.6439 42.5861L11.8535 42.5064H11.9286H12.0037L12.0035 42.5666L12.0034 42.6269L11.6539 42.8477L11.3044 43.0685L11.1923 43.0638ZM76.766 43.0647L76.6788 43.0607L76.2774 42.8204L75.8759 42.5801L76.1569 42.6262L76.438 42.6724L76.9128 42.4459L77.3877 42.2194L76.9128 42.0123L76.438 41.8052L76.2774 41.748L76.1168 41.6908L76.4079 41.5399L76.6991 41.3891L77.2911 41.6149L77.8832 41.8408L82.722 41.9402L87.5608 42.0395L87.7804 42.1003L88 42.161L86.073 42.2153L84.146 42.2695L81.2663 42.3572L78.3866 42.4448L77.6198 42.7568L76.853 43.0688L76.766 43.0647ZM17.9051 42.3948L16.0584 42.4033L15.1511 42.3466L14.2437 42.2899L14.1605 42.2067L14.0773 42.1235L14.1846 42.0542L14.292 41.9849L17.0477 41.9609L19.8034 41.9369L19.7776 42.1616L19.7518 42.3864L17.9051 42.3948ZM68.7912 42.4264H68.0742L68.0207 42.3729L67.9671 42.3194V42.1808V42.0422L68.0941 41.9934L68.2212 41.9447L68.7164 41.9419L69.2117 41.9391L69.9343 41.5825L70.6569 41.2258L70.4161 41.224L70.1752 41.2221L69.5128 41.1296L68.8504 41.037V40.8886V40.7402H70.5927H72.335L72.2588 40.8134L72.1825 40.8866L71.0835 41.4868L69.9846 42.087L69.7463 42.2567L69.5081 42.4263L68.7912 42.4264ZM18.0642 39.4557H17.865V39.2593V39.063L18.024 37.9807L18.1831 36.8984L18.3493 36.1496L18.5155 35.4009L18.7551 34.5763L18.9947 33.7517L19.2407 33.0508L19.4866 32.3498L19.7518 31.7075L20.0169 31.0651L20.3577 30.3425L20.6986 29.6199L21.1411 28.817L21.5837 28.014L22.1765 27.1017L22.7693 26.1894L23.2638 25.536L23.7583 24.8827L24.4137 24.1199L25.0691 23.3571L26.0646 22.3936L27.0602 21.4301L27.8221 20.8172L28.584 20.2042L29.2859 19.7157L29.9878 19.2272L30.8012 18.7387L31.6145 18.2502L32.4115 17.8502L33.2085 17.4503L34.1668 17.0564L35.1251 16.6625L36.2304 16.3031L37.3358 15.9436L38.2591 15.7384L39.1825 15.5331L40.146 15.3772L41.1095 15.2214L41.6175 15.1696L42.1256 15.1178L42.0993 15.3005L42.073 15.4832L41.0069 15.6215L39.9407 15.7599L39.2806 15.8918L38.6204 16.0237L37.6971 16.2541L36.7737 16.4844L35.8504 16.8035L34.927 17.1225L34.0493 17.4909L33.1716 17.8594L32.1658 18.3843L31.1601 18.9093L30.2417 19.5132L29.3234 20.1171L28.5522 20.7028L27.781 21.2885L26.8599 22.1244L25.9388 22.9602L25.1144 23.8709L24.29 24.7815L23.6214 25.6752L22.9529 26.5688L22.4677 27.3316L21.9826 28.0943L21.5664 28.8324L21.1502 29.5704L20.7229 30.4784L20.2957 31.3863L19.9287 32.3533L19.5617 33.3203L19.2785 34.2544L18.9954 35.1886L18.758 36.3385L18.5206 37.4885L18.4291 38.2914L18.3376 39.0943L18.3005 39.275L18.2634 39.4557H18.0642ZM69.6159 39.4557H69.4219L69.384 39.3943L69.3461 39.333L69.252 38.8122L69.1579 38.2914L68.9605 37.4542L68.763 36.6169L68.4373 35.6157L68.1115 34.6144L67.7514 33.7631L67.3913 32.9119L67.3494 32.8115L67.3075 32.7111L67.5369 32.713L67.7663 32.7148L68.1575 33.6566L68.5486 34.5983L68.8953 35.6578L69.242 36.7173L69.4818 37.8257L69.7215 38.9341L69.7656 39.195L69.8097 39.4559L69.6159 39.4557ZM22.7959 34.0759H22.7628V33.9951V33.9143L23.0503 33.1721L23.3377 32.4299L23.9283 31.2256L24.5189 30.0212L25.0871 29.1081L25.6553 28.1949L26.3271 27.3015L26.9989 26.408L27.9008 25.4516L28.8026 24.4951L29.6498 23.7482L30.4969 23.0013L31.2667 22.4535L32.0365 21.9057L32.5716 21.5705L33.1067 21.2354L34.1373 20.7174L35.1679 20.1994L35.9279 19.9004L36.6879 19.6014L37.6753 19.2934L38.6627 18.9853L39.846 18.7488L41.0292 18.5123L41.4307 18.4857L41.8321 18.4592V18.6197V18.7803L41.2299 18.8764L40.6277 18.9725L39.9051 19.1073L39.1825 19.2421L38.0871 19.5504L36.9916 19.8587L36.1745 20.1843L35.3574 20.5098L34.4572 20.9475L33.5571 21.3852L32.6552 21.9451L31.7534 22.505L30.8913 23.1649L30.0292 23.8247L28.7392 25.1164L27.4492 26.4081L26.6917 27.4249L25.9343 28.4417L25.4168 29.2716L24.8994 30.1015L24.2216 31.4665L23.5438 32.8314L23.1864 33.4537L22.829 34.076L22.7959 34.0759ZM64.4901 25.6453H64.4485L63.6605 24.742L62.8725 23.8387L62.148 23.11L61.4235 22.3814L60.7008 21.7554L59.9782 21.1293L59.095 20.4658L58.2118 19.8022L57.1278 19.1367L56.0439 18.4712L54.9671 17.9557L53.8902 17.4403L52.8795 17.0545L51.8687 16.6686L50.7045 16.3429L49.5402 16.0171L48.6972 15.8613L47.8541 15.7054L47.011 15.6117L46.168 15.5179L45.907 15.4794L45.6461 15.4409V15.284V15.127H45.923H46.1999L47.1474 15.2479L48.095 15.3688L49.0866 15.5732L50.0783 15.7777L51.0275 16.0509L51.9768 16.3242L52.7658 16.6179L53.5548 16.9116L54.5071 17.3403L55.4594 17.7689L56.3418 18.2571L57.2242 18.7452L57.9128 19.1987L58.6014 19.6522L59.2497 20.1355L59.8979 20.6189L60.6325 21.2452L61.3671 21.8715L62.2889 22.8336L63.2106 23.7956L63.8229 24.5944L64.4352 25.3932L64.4834 25.5193L64.5317 25.6453L64.4901 25.6453ZM59.8577 24.9437L59.8175 24.982L59.6167 24.7872L59.416 24.5923L58.8138 24.2187L58.2116 23.8452L57.3935 23.2397L56.5754 22.6343L55.7476 22.1178L54.9197 21.6014L53.9561 21.1019L52.9926 20.6025L52.0436 20.2262L51.0946 19.85L50.1901 19.5838L49.2855 19.3176L48.4493 19.1525L47.6131 18.9874L46.9306 18.8971L46.2481 18.8068L46.0675 18.7719L45.8868 18.7371V18.5665V18.3959L46.4332 18.4467L46.9796 18.4975L47.6978 18.621L48.416 18.7446L49.5005 19.0175L50.585 19.2905L51.5823 19.6616L52.5796 20.0327L53.5024 20.4713L54.4251 20.9099L55.4595 21.5271L56.4939 22.1443L57.6338 23.0063L58.7737 23.8683L59.3357 24.3868L59.8978 24.9053L59.8577 24.9437ZM43.5369 10.3095H43.4737L43.5151 9.80768L43.5566 9.30585L43.6468 4.72921L43.737 0.152563L43.8083 0.0762787L43.8796 0L43.8805 0.477737L43.8814 0.955474L43.9574 4.00657L44.0333 7.05766L44.0814 8.70365L44.1297 10.3496L43.9738 10.1552L43.8179 9.9607L43.7091 10.1351L43.6002 10.3095L43.5369 10.3095Z" fill="black"/>
</svg>
